<svg xmlns="http://www.w3.org/2000/svg" viewBox="0 0 2300 520"><defs><linearGradient id="g" x1="0%" y1="50%" x2="100%" y2="50%"><stop offset="0%" stop-color="#2587FF"/><stop offset="48%" stop-color="#12C3F1"/><stop offset="100%" stop-color="#16E8DE"/></linearGradient><style>.a{fill:none;stroke:url(#g);stroke-width:18;stroke-linecap:round;stroke-linejoin:round}.b{fill:none;stroke:url(#g);stroke-width:12;stroke-linecap:round;stroke-linejoin:round}</style></defs><g transform="translate(26 0) scale(.78)"><g class="b"><path d="M188 290 C113 259 70 216 42 150 C118 182 180 215 221 253"/><path d="M180 326 C104 307 69 275 48 237 C106 252 163 272 205 300"/><path d="M184 361 C121 355 83 334 59 304 C105 311 151 325 193 344"/></g><g transform="translate(700 0) scale(-1 1)" class="b"><path d="M188 290 C113 259 70 216 42 150 C118 182 180 215 221 253"/><path d="M180 326 C104 307 69 275 48 237 C106 252 163 272 205 300"/><path d="M184 361 C121 355 83 334 59 304 C105 311 151 325 193 344"/></g><path class="a" d="M207 407 A156 156 0 1 1 493 407"/><path class="a" d="M221 424 A156 156 0 0 0 479 424"/><path class="b" d="M259 269 C284 232 317 213 354 207"/><path class="b" d="M245 304 L239 319"/><path class="a" d="M34 370 H107 C126 370 134 342 154 342 C184 342 178 414 218 414 C255 414 257 316 292 316 C321 316 318 394 348 394 H373 C386 394 397 385 405 374 C414 361 425 350 441 350 C466 350 470 423 509 423 C547 423 552 333 588 333 C626 333 626 406 668 406 C700 406 704 370 736 370 H805"/><path class="a" d="M253 369 L277 369 L294 316 L312 420 L333 369 H365"/><path class="a" d="M392 281 C383 291 386 315 403 336 C420 357 444 367 456 356"/></g><g fill="#071426"><text x="745" y="328" font-family="Montserrat, Arial, Helvetica, sans-serif" font-weight="800" font-size="148" letter-spacing="1">MERCURY</text><text x="1615" y="328" font-family="Montserrat, Arial, Helvetica, sans-serif" font-weight="400" font-size="112" letter-spacing="3">CALL DESK</text></g></svg>